<svg
  xmlns="http://www.w3.org/2000/svg"
  xml:space="preserve"
  viewBox="0 0 40.9 61.5"
  class="default-svg"
>
  <path
    class="default-svg-fill"
    d="M10.5 61.5H.4a.4.4 0 0 1-.4-.4v-2l1.7-7.7c0-.2.2-.3.4-.3h5.4v-.6H2a.4.4 0 0 1-.4-.4v-7.8l.1-.3.3-.1h.2v-7.7H2a.4.4 0 0 1-.4-.4v-2.6l-.1-.1-.8-.7-.1-.3v-2.7l.1-.3.8-.7.1-.1v-8.2c0-.2.2-.4.4-.4h4.4c.2 0 .4.2.4.4v.3h.9v-5.3A13 13 0 0 1 20.4 0a13 13 0 0 1 12.8 13.1V18.4h.8v-.3c0-.2.2-.4.4-.4h4.4c.2 0 .4.2.4.4v8.1l.1.1.8.7.1.3V30l-.1.3-.8.7-.1.1v2.6c0 .2-.2.4-.4.4h-.2v7.7h.2c.2 0 .4.2.4.4V50c0 .2-.2.4-.4.4h-5.5v.6h5.4c.2 0 .3.1.4.3l1.7 7.6V61c0 .2-.2.4-.4.4H30.3a.4.4 0 0 1-.4-.4v-2l.2-1.9h-.5c-.2 0-.4-.2-.5-.4l-.5-7.1H23.5l.6 1.6h.7c.2 0 .4.2.4.4l.7 9.3-.1.3-.3.1H15.4l-.3-.1-.1-.1.7-9.3c0-.2.2-.4.4-.4h.7l.6-1.6H12.3l-.5 7v.1c0 .2-.2.4-.4.4h-.5l.2 1.9v2.1l-.6.2zm20.2-.4zM.8 60.7h9.3v-1.6l-.2-2-2.4-.1a.4.4 0 0 1-.4-.4l.3-4.6h-5L.8 59.3v1.4zm29.9 0H40v-1.6l-1.6-7.2h-5l.3 4.6c0 .2-.2.4-.4.4l-2.5.2-.2 2 .1 1.6zm-14.9 0h9.3l-.6-8.5h-3.6V58c0 .2-.2.4-.4.4s-.5-.1-.5-.3v-5.8h-3.6l-.6 8.4zm-7.9-4.5 3 .2.5-7.2c0-.9-.6-1.6-1.5-1.7-.8 0-1.6.6-1.6 1.5l-.4 7.2zm23-8.7c-.9 0-1.6.8-1.5 1.6l.5 7.3 3-.2-.5-7.2c0-.9-.7-1.5-1.5-1.5zm-13.4 3.9h5.8l-.6-1.6H18l-.5 1.6zm20.2-1.7h.7v-1.3l-.7 1.3zm-3.9 0h3v-.1l1.6-2.8v-4.1h-4.6v2.9h.2v-.2c0-.2.2-.4.4-.4v-.6c0-.5.4-.9.9-.9s.9.4.9.9v.6c.2 0 .4.2.4.4v1.9c0 .2-.2.4-.4.4h-.8v.8c0 .2-.2.4-.4.4h-1.1v.8zM4 49.7h3v-.9H5.9a.4.4 0 0 1-.4-.4v-.8h-.8a.4.4 0 0 1-.4-.4v-1.9c0-.2.2-.4.4-.4v-.6c0-.2.1-.5.3-.6l.6-.3c.5 0 .9.4.9.9v.6c.2 0 .4.2.4.4v.2H7v-2.9H2.4v4.2L4 49.7c0-.1 0-.1 0 0zm-1.6 0h.7l-.7-1.3v1.3zm10.2-.7h15.7l1-1.8H11.6l1 1.8zm21.2-1h.7v-.8c0-.2.2-.4.4-.4h.8v-1.1h-1v.2c0 .2-.2.4-.4.4h-.5V48zM6.3 48H7v-1.7h-.5a.4.4 0 0 1-.4-.4v-.2h-1v1.1h.8c.2 0 .4.2.4.4v.8zm26.1-.8c.3.2.5.5.6.8v-.9l-.3.1h-.3zm-24.6-.1v.9l.6-.8h-.3l-.3-.1zm14.9-.7h9.6V17.1h-4.6v.8c0 .2-.2.4-.4.4H13.5a.4.4 0 0 1-.4-.4v-.8H8.5v29.3h9.7c-.2-.1-.2-.2-.2-.3v-4l.1-.3.3-.1h4.2c.2 0 .4.2.4.4v4l-.3.3zm-3.9-.7h3.4v-3.2h-3.4v3.2zm16.4-.8h.2v-.6c0-.1-.2-.1-.2 0v.6zm-29.7 0h.2v-.6l-.1-.1-.1.1v.6zm27.7-16.4V42l.3-.1h1.1v-7.7h-.1a.4.4 0 0 1-.4-.4v-5.2h-.9zM6.3 41.8h1.1l.3.1V28.5h-.9v5.2c0 .2-.2.4-.4.4h-.1v7.7zm31.1 0h.4v-7.7h-.4v7.7zm-2.1 0h1.3v-7.7h-1.3v7.7zm-31.1 0h1.3v-7.7H4.2v7.7zm-1.2 0h.4v-7.7H3v7.7zm35.3-8.5h.1V18.5h-3.6v14.8h3.5c-.1 0 0 0 0 0zm-35.9 0H6V18.5H2.4v14.8zm-1.1-3.5.3.2v-2.8l-.3.2v2.4zm37.9-2.6V30l.3-.2v-2.3l-.3-.3zm-32.4.5h.9v-8.5h-.9v8.5zm26.4 0h.8v-8.5h-.9v8.5zM13.9 17.5h13v-.4h-13v.4zm-5.4-1.2h23.9v-.8H8.5v.8zm0-1.6h23.9v-.3h-3.3a.4.4 0 0 1-.4-.4V9.8c0-.2.2-.4.4-.4h2.7c-.6-2.1-1.8-3.9-3.3-5.3h-5c-.2 0-.3-.1-.4-.3l-.7-2.2.1-.4.3-.2A9.9 9.9 0 0 0 18 1l.3.2.1.4-.7 2.2c-.1.2-.2.3-.4.3h-5A12.2 12.2 0 0 0 9 9.4h1.9c.2 0 .4.2.4.4V14c0 .2-.2.4-.4.4H8.5v.3zm21-1.1h2.9V13c0-1-.1-1.9-.3-2.9h-2.6v3.5zm-21 0h2v-3.4H8.8c-.2.9-.3 1.9-.3 2.9v.5zM23.8 3.3h3.8c-.7-.6-1.5-1-2.4-1.4H23.3l.5 1.4zm-10.6 0H17l.4-1.4H15.5c-.8.4-1.6.8-2.3 1.4zM39.3 60h-1.2c-.2 0-.4-.2-.4-.4s.2-.4.4-.4h1.2c.2 0 .4.2.4.4s-.1.4-.4.4zm-2.2 0h-1.2c-.2 0-.4-.2-.4-.4s.2-.4.4-.4h1.2c.2 0 .4.2.4.4s-.2.4-.4.4zm-2.2 0h-1.2c-.2 0-.4-.2-.4-.4s.2-.4.4-.4h1.2c.2 0 .4.2.4.4s-.2.4-.4.4zm-2.2 0h-1.2c-.2 0-.4-.2-.4-.4s.2-.4.4-.4h1.2c.2 0 .4.2.4.4s-.2.4-.4.4zm-8.3 0h-1.2c-.2 0-.4-.2-.4-.4s.2-.4.4-.4h1.2c.2 0 .4.2.4.4s-.2.4-.4.4zm-2.3 0h-1.2c-.2 0-.4-.2-.4-.4s.2-.4.4-.4h1.2c.2 0 .4.2.4.4s-.1.4-.4.4zm-2.2 0h-1.2c-.2 0-.4-.2-.4-.4s.2-.4.4-.4h1.2c.2 0 .4.2.4.4s-.2.4-.4.4zm-2.2 0h-1.2c-.2 0-.4-.2-.4-.4s.2-.4.4-.4h1.2c.2 0 .4.2.4.4s-.2.4-.4.4zm-8.3 0H8.2c-.2 0-.4-.2-.4-.4s.2-.4.4-.4h1.2c.2 0 .4.2.4.4s-.2.4-.4.4zm-2.2 0H6c-.2 0-.4-.2-.4-.4s.2-.4.4-.4h1.2c.2 0 .4.2.4.4s-.2.4-.4.4zM5 60H3.7c-.2 0-.4-.2-.4-.4s.2-.4.4-.4H5c.2 0 .4.2.4.4s-.2.4-.4.4zm-2.3 0H1.5c-.2 0-.4-.2-.4-.4s.2-.4.4-.4h1.2c.2 0 .4.2.4.4s-.2.4-.4.4zm7.7-4.6a.4.4 0 0 1-.4-.4l.4-5.5c0-.2.2-.4.4-.4s.4.2.4.4l-.4 5.5c0 .3-.2.4-.4.4zm20 0a.4.4 0 0 1-.4-.4l-.4-5.5c0-.2.2-.4.4-.4s.4.2.4.4l.4 5.5c0 .2-.1.4-.4.4zm1.8-.1a.4.4 0 0 1-.4-.4l-.4-5.5c0-.2.2-.4.4-.4s.4.2.4.4l.4 5.5c0 .2-.1.4-.4.4zm-23.6 0a.4.4 0 0 1-.4-.4l.4-5.5c0-.3.2-.4.4-.4s.4.2.4.4L9 54.9c0 .2-.2.4-.4.4zM22.5 39h-4.2a.4.4 0 0 1-.4-.4V27.2l.1-.3.3-.1h4.2c.2 0 .4.2.4.4v11.4c0 .2-.2.4-.4.4zm-3.7-.8h3.4v-4.9h-3.4v4.9zm0-5.7h3.4v-4.9h-3.4v4.9zm12.6 5.8h-2.3a.4.4 0 0 1-.4-.4V18.7c0-.2.2-.4.4-.4h2.3c.2 0 .4.2.4.4v19.2c0 .2-.2.4-.4.4zm-1.9-.8H31V19.1h-1.5v18.4zm-17.8.8H9.4a.4.4 0 0 1-.4-.4V18.7l.1-.3.3-.1h2.3c.2 0 .4.2.4.4v19.2c0 .2-.2.4-.4.4zm-1.9-.8h1.5V19.1H9.8v18.4zM25.1 26l-3.1-.5c0 .2-.2.4-.4.4h-5.4l-3-.6c-.2 0-.3-.2-.3-.4V24c0-.2.1-.3.3-.4l2.9-.7h5.5c.2 0 .4.2.4.4v.1l3-.5h.2l2.4.7c.2 0 .3.2.3.4v.9c0 .2-.1.3-.3.4l-2.4.7h-.1zm-3.4-1.4 3.4.6 2-.6v-.3l-2-.6-3.4.6-.3-.1-.1-.3v-.2h-4.9l-2.6.6v.2l2.6.6h4.9V25l.1-.3.3-.1zm-6-2.4h-.1l-2.4-.7c-.2 0-.3-.2-.3-.4v-.9c0-.2.1-.3.3-.4l2.4-.7h.2l3 .5v-.1c0-.2.2-.4.4-.4h5.5l2.9.7c.2 0 .3.2.3.4v.9c0 .2-.1.4-.3.4l-2.9.6h-5.5a.4.4 0 0 1-.4-.4l-3.1.5c.1 0 .1 0 0 0zm-2-1.4 2 .6 3.4-.5.3.1.1.3v.1h5l2.5-.5v-.2l-2.6-.6h-4.9v.2l-.1.3-.3.1-3.3-.7-2 .6v.2zm3-6.3a.4.4 0 0 1-.4-.4v-3.3c0-.2.2-.4.4-.4s.4.2.4.4v3.3c0 .2-.2.4-.4.4zm5.5 0h-4.3a.4.4 0 0 1-.4-.4v-3.3c0-.2.2-.4.4-.4h4.3c.2 0 .4.2.4.4v3.3c0 .2-.1.4-.4.4zm-3.9-.8h3.5v-2.5h-1.2c.3 0 .5.2.7.4.2.2.4.5.3.9 0 .7-.6 1.2-1.3 1.2-.3 0-.6-.1-.9-.4s-.3-.5-.3-.9c0-.6.5-1.1 1-1.2h-2v2.5zm2.2-1.7c-.2 0-.4.2-.4.4l.1.3.3.1c.2 0 .4-.2.4-.4s-.2-.4-.4-.4zm.8.4zm6.6 2a.4.4 0 0 1-.4-.4V9.8c0-.2.2-.4.4-.4s.4.2.4.4V14c0 .3-.2.4-.4.4zm-12.5 0h-2.1a.4.4 0 0 1-.4-.4V9.8c0-.2.2-.4.4-.4h2.1c.2 0 .4.2.4.4V14c0 .3-.2.4-.4.4zm-1.7-.8H15v-1.2h-1.3v1.2zm0-2H15v-1.4h-1.3v1.4zm-1.6 2.8a.4.4 0 0 1-.4-.4V9.8c0-.2.2-.4.4-.4s.4.2.4.4V14c0 .3-.2.4-.4.4zm13-1c-.1 0-.1 0 0 0a2 2 0 0 1-2-2c0-1.1.9-1.9 2-1.9a2 2 0 0 1 2 2 2 2 0 0 1-2 1.9zm-.1-3.1c-.6 0-1.1.5-1.2 1.1 0 .6.5 1.2 1.1 1.2.7 0 1.2-.5 1.2-1.1.1-.7-.4-1.2-1.1-1.2zm-.9-1h-7.4l-.3-.1-.1-.3.7-4.3c0-.2.2-.3.4-.3h6.1c.2 0 .4.1.4.3l.6 4.3-.1.3-.3.1zm-6.9-.8h6.5L23.2 5h-3.3c.4.1.7.2.9.5.3.3.5.8.5 1.2 0 .4-.2.8-.5 1.1-.3.3-.8.5-1.2.5-.4 0-.9-.2-1.2-.5-.3-.3-.5-.8-.5-1.2 0-.8.6-1.5 1.4-1.6h-1.6l-.5 3.5zm2.4-2.7c-.5 0-.9.4-.9.9l.2.6.6.3.6-.2.3-.6-.3-.6c-.1-.3-.3-.4-.5-.4zm2.9-1.7h-4.1l-.3-.2-.1-.3.6-2.2c0-.2.2-.3.4-.3h2.8c.2 0 .3.1.4.3l.7 2.2-.1.4-.3.1zm-3.6-.8h3l-.4-1.4h-2.2l-.4 1.4z"
  />
</svg>
