<?xml version="1.0" encoding="utf-8"?>
<!-- Generator: Adobe Illustrator 27.8.0, SVG Export Plug-In . SVG Version: 6.00 Build 0)  -->
<svg version="1.1" id="Layer_1" xmlns="http://www.w3.org/2000/svg" xmlns:xlink="http://www.w3.org/1999/xlink" x="0px" y="0px"
	 viewBox="0 0 46 23.3" style="enable-background:new 0 0 46 23.3;" xml:space="preserve" class="default-svg">
<path class="default-svg-fill" d="M7.3,0.1C6,0.1,5,1.1,5,2.5c0,0.6,0.2,0.8,0.3,1C5.6,4,6.9,6.1,6.9,6.1C6.9,6.2,6.9,6.3,7,6.4c0.1,0.4-0.2,0.7-0.6,0.7H0v3
	h8.8c1.3,0,2.4-1,2.4-2.4c0-0.6-0.2-0.8-0.3-1L9.2,4.1C9.2,4,9.1,3.9,9.1,3.8c0-0.4,0.3-0.7,0.7-0.7H14v7h4v-7h4v-3H7.3z M24.3,0.1
	l-3.2,10h3.2l0.7-2h3.2l0.7,2H32l-3.3-10H24.3z M33,0.1v10h3V7c0.7,0.6,2.2,2.1,3,2.8c0.1,0.1,0.4,0.3,0.8,0.3H46v-3h-4.4
	c-0.2,0-0.4-0.1-0.5-0.2C41,6.9,41,6.9,40.9,6.8C42.1,6.3,43,5,43,3.6c0-1.9-1.6-3.5-3.5-3.5H33z M36,3.1h3c0.3,0,0.5,0.2,0.5,0.5
	S39.3,4.1,39,4.1h-3V3.1z M26.6,3.5l1,2.6h-1.9L26.6,3.5z M0.4,13.1l3.3,10h2.4l1.6-4.6l1.6,4.6h2.4l3.3-10H11L10,16l-1-2.9H5.6
	l-1.1,2.9l-1-2.9H0.4z M17.3,13.1l-3.2,10h3.2l0.7-2h3.2l0.7,2H25l-3.3-10H17.3z M26,13.1v10h3V20c0.7,0.6,2.2,2.1,3,2.8
	c0.1,0.1,0.4,0.3,0.8,0.3h9.3c1.3,0,2.4-0.9,2.4-2.4c0-0.6-0.2-0.8-0.3-1l-1.7-2.5c0-0.1-0.1-0.2-0.1-0.3c0-0.4,0.3-0.8,0.6-0.8h3
	v-3h-5.7c-1.3,0-2.4,1.1-2.4,2.5c0,0.6,0.2,0.8,0.3,1c0.3,0.4,1.8,2.5,1.8,2.5c0,0.1,0.1,0.2,0.1,0.3c0,0.4-0.3,0.7-0.6,0.7h-4.9
	c-0.2,0-0.3,0-0.4-0.1c-0.1-0.1-0.2-0.2-0.2-0.2c1.2-0.6,2-1.8,2-3.2c0-1.9-1.6-3.5-3.5-3.5H26z M29,16.1h3c0.3,0,0.5,0.2,0.5,0.5
	s-0.2,0.5-0.5,0.5h-3V16.1z M19.6,16.5l1,2.6h-1.9L19.6,16.5z"/>
</svg>
