<svg xmlns="http://www.w3.org/2000/svg" class="default-svg" viewBox="0 0 48 48">
    <path class="default-svg-fill" d="M 24 3 C 17.390343 3 12 8.390343 12 15 L 12 15.5 C 12 16.560093 12.510966 17.485908 13.269531 18.130859 C 12.51757 19.07201 12 20.211872 12 21.5 L 12 22.5 A 1.50015 1.50015 0 0 0 10.476562 20.978516 A 1.50015 1.50015 0 0 0 9 22.5 L 9 40 L 8.5 40 L 7.5 40 A 1.50015 1.50015 0 1 0 7.5 43 L 8.5 43 L 10.5 43 L 13.5 43 A 1.50015 1.50015 0 1 0 13.5 40 L 12 40 L 12 31.5 A 1.50015 1.50015 0 1 0 15 31.5 L 15 21.5 C 15 20.101774 16.101774 19 17.5 19 L 30.5 19 C 31.898226 19 33 20.101774 33 21.5 L 33 31.5 C 33 32.898226 31.898226 34 30.5 34 L 25.5 34 L 25.5 29.5 A 1.50015 1.50015 0 0 0 23.976562 27.978516 A 1.50015 1.50015 0 0 0 22.5 29.5 L 22.5 34 L 17.5 34 A 1.50015 1.50015 0 1 0 17.5 37 L 23.753906 37 A 1.50015 1.50015 0 0 0 24.240234 37 L 30.5 37 C 33.519774 37 36 34.519774 36 31.5 L 36 40 L 34.5 40 A 1.50015 1.50015 0 1 0 34.5 43 L 37.5 43 L 39.5 43 L 40.5 43 A 1.50015 1.50015 0 1 0 40.5 40 L 39.5 40 L 39 40 L 39 22.5 A 1.50015 1.50015 0 0 0 37.476562 20.978516 A 1.50015 1.50015 0 0 0 36 22.5 L 36 21.5 C 36 20.211872 35.48243 19.07201 34.730469 18.130859 C 35.489034 17.485908 36 16.560093 36 15.5 L 36 15 C 36 11.496267 34.488078 8.3236666 32.083984 6.1308594 A 1.50015 1.50015 0 1 0 30.0625 8.3476562 C 31.868407 9.9948491 33 12.355733 33 15 L 33 15.5 C 33 15.795045 32.795045 16 32.5 16 L 30.5 16 L 23 16 L 23 12.5 A 1.50015 1.50015 0 0 0 21.476562 10.978516 A 1.50015 1.50015 0 0 0 20 12.5 L 20 16 L 17.5 16 L 15.5 16 C 15.204955 16 15 15.795045 15 15.5 L 15 15 C 15 10.011657 19.011657 6 24 6 C 24.668746 6 25.316672 6.073582 25.943359 6.2109375 A 1.5006186 1.5006186 0 1 0 26.585938 3.2792969 C 25.752624 3.0966529 24.887254 3 24 3 z M 26.5 11 A 1.5 1.5 0 0 0 26.5 14 A 1.5 1.5 0 0 0 26.5 11 z M 20.5 21 A 1.50015 1.50015 0 1 0 20.5 24 L 27.5 24 A 1.50015 1.50015 0 1 0 27.5 21 L 20.5 21 z"/>
</svg>