<svg xmlns="http://www.w3.org/2000/svg" viewBox="0 0 19.999 20" class="default-svg">
  <path class="default-svg-fill" d="M7.861,46.286H5.718V32.714A.714.714,0,0,0,5,32H3.575a.714.714,0,0,0-.714.714V46.286H.718a.715.715,0,0,0-.5,1.219l3.571,4.286a.714.714,0,0,0,1.01,0L8.366,47.5A.715.715,0,0,0,7.861,46.286Zm10.714-2.857H12.861a.714.714,0,0,0-.714.714v1.429a.714.714,0,0,0,.714.714h2.5l-2.735,3.145a1.429,1.429,0,0,0-.479,1.068v.787a.714.714,0,0,0,.714.714h5.714a.714.714,0,0,0,.714-.714V49.857a.714.714,0,0,0-.714-.714h-2.5L18.81,46a1.429,1.429,0,0,0,.479-1.068v-.787A.714.714,0,0,0,18.575,43.429Zm1.387-3.812-2.646-7.143A.714.714,0,0,0,16.643,32h-1.85a.714.714,0,0,0-.673.474l-2.646,7.143a.714.714,0,0,0,.672.954h1.108a.714.714,0,0,0,.68-.495l.2-.577H17.3l.2.577a.714.714,0,0,0,.682.495h1.109a.714.714,0,0,0,.672-.954ZM14.986,37l.732-2.143L16.449,37Z" transform="translate(-0.004 -32)"/>
</svg>
