<svg xmlns="http://www.w3.org/2000/svg" viewBox="0 0 19.999 20" class="default-svg">
  <path class="default-svg-fill" d="M35.261,39.631l-2.725-7.143A.714.714,0,0,0,31.861,32h-1.7a.711.711,0,0,0-.674.488l-2.726,7.143a.714.714,0,0,0,.674.94h.749a.711.711,0,0,0,.675-.488l.47-1.3h3.362l.47,1.3a.711.711,0,0,0,.675.488h.749a.714.714,0,0,0,.675-.94Zm-5.154-2.988.9-2.5.9,2.5Zm3.762,6.786H28.156a.714.714,0,0,0-.714.714v.714a.714.714,0,0,0,.714.714H31.6l-3.755,3.87a1.429,1.429,0,0,0-.4,1v.848a.714.714,0,0,0,.714.714H33.87a.714.714,0,0,0,.714-.714v-.714a.714.714,0,0,0-.714-.714H30.428l3.755-3.871a1.429,1.429,0,0,0,.4-1v-.848A.714.714,0,0,0,33.87,43.429ZM16.548,36.286h1.964v15a.714.714,0,0,0,.714.714h.714a.714.714,0,0,0,.714-.714v-15H22.62a.536.536,0,0,0,.39-.9l-3.036-3.214a.536.536,0,0,0-.779,0L16.16,35.382a.536.536,0,0,0,.389.9Z" transform="translate(-16.013 -32)"/>
</svg>
